<svg id="Layer_1" data-name="Layer 1" xmlns="http://www.w3.org/2000/svg" viewBox="0 0 107 33"><defs><style>.cls-1{fill:#ff4c60;}.cls-2{fill:#fff;stroke:#fff;stroke-miterlimit:10;stroke-width:0.25px;}</style></defs><title>logo</title><g id="Bolby."><path id="_." data-name="." class="cls-1" d="M105.5,26a.82.82,0,0,0,.64-.27.89.89,0,0,0,.26-.63h0V20.35a.94.94,0,0,0-.26-.67.82.82,0,0,0-.64-.27h-4.76a.92.92,0,0,0-.93.94h0V25.1a.86.86,0,0,0,.27.65.92.92,0,0,0,.66.25h4.76Z"/></g><path class="cls-2" d="M1.18,25.85a.52.52,0,0,1-.16-.4V11.24a.54.54,0,0,1,.16-.4.57.57,0,0,1,.41-.17H4.06a.81.81,0,0,1,.79.49L8.62,17.9l3.78-6.74a.82.82,0,0,1,.79-.49h2.48a.58.58,0,0,1,.57.57V25.45a.53.53,0,0,1-.17.4.57.57,0,0,1-.4.15H12.89a.55.55,0,0,1-.55-.55v-8L10,21.82a.86.86,0,0,1-.76.5H8a.93.93,0,0,1-.76-.5L4.92,17.48v8a.53.53,0,0,1-.17.4.57.57,0,0,1-.4.15H1.59A.59.59,0,0,1,1.18,25.85Z"/><path class="cls-2" d="M20.11,24.79a5.6,5.6,0,0,1-1.58-4.18v-.67a5.68,5.68,0,0,1,1.62-4.08,5.75,5.75,0,0,1,4.14-1.46,6.3,6.3,0,0,1,3.19.75,4.77,4.77,0,0,1,1.95,2.08,6.79,6.79,0,0,1,.64,3v.55a.54.54,0,0,1-.16.4.57.57,0,0,1-.41.17H22.56v.13A2.8,2.8,0,0,0,23,23.08a1.45,1.45,0,0,0,1.25.6,1.49,1.49,0,0,0,.84-.21,2.79,2.79,0,0,0,.61-.54,1.28,1.28,0,0,1,.31-.27,1,1,0,0,1,.39-.05h2.86a.49.49,0,0,1,.34.12.36.36,0,0,1,.15.29,2.25,2.25,0,0,1-.65,1.34,5.09,5.09,0,0,1-1.88,1.31,7.13,7.13,0,0,1-2.93.55A5.92,5.92,0,0,1,20.11,24.79ZM26,19.12v0a2.55,2.55,0,0,0-.46-1.63,1.71,1.71,0,0,0-2.57,0,2.61,2.61,0,0,0-.45,1.63v0Z"/><path class="cls-2" d="M32.21,25.85a.53.53,0,0,1-.17-.4V11a.51.51,0,0,1,.17-.39.58.58,0,0,1,.4-.16h3a.58.58,0,0,1,.4.16.51.51,0,0,1,.17.39v4.88a4.27,4.27,0,0,1,3.43-1.48,4.59,4.59,0,0,1,2.26.56,4,4,0,0,1,1.58,1.69A5.87,5.87,0,0,1,44,19.34v6.11a.53.53,0,0,1-.17.4.57.57,0,0,1-.4.15h-3a.49.49,0,0,1-.38-.16.54.54,0,0,1-.17-.39v-6A2.15,2.15,0,0,0,39.4,18,1.75,1.75,0,0,0,38,17.44a1.81,1.81,0,0,0-1.38.54,2.06,2.06,0,0,0-.5,1.5v6a.53.53,0,0,1-.17.4.57.57,0,0,1-.4.15h-3A.57.57,0,0,1,32.21,25.85Z"/><path class="cls-2" d="M47.5,24.79a5.6,5.6,0,0,1-1.58-4.18v-.67a5.68,5.68,0,0,1,1.62-4.08,5.74,5.74,0,0,1,4.14-1.46,6.3,6.3,0,0,1,3.19.75,4.77,4.77,0,0,1,2,2.08,6.79,6.79,0,0,1,.64,3v.55a.54.54,0,0,1-.16.4.57.57,0,0,1-.41.17H50v.13a2.8,2.8,0,0,0,.46,1.59,1.45,1.45,0,0,0,1.25.6,1.49,1.49,0,0,0,.84-.21,3,3,0,0,0,.61-.54,1.28,1.28,0,0,1,.31-.27,1,1,0,0,1,.39-.05h2.86a.5.5,0,0,1,.34.12.36.36,0,0,1,.15.29,2.25,2.25,0,0,1-.65,1.34,5.09,5.09,0,0,1-1.88,1.31,7.13,7.13,0,0,1-2.93.55A5.92,5.92,0,0,1,47.5,24.79Zm5.93-5.67v0A2.55,2.55,0,0,0,53,17.45a1.71,1.71,0,0,0-2.57,0A2.61,2.61,0,0,0,50,19.08v0Z"/><path class="cls-2" d="M60.36,24.88a5.79,5.79,0,0,1-1.3-3.81l0-.76,0-.79a5.84,5.84,0,0,1,1.31-3.76A4.26,4.26,0,0,1,63.7,14.4a4.17,4.17,0,0,1,3.18,1.27V11a.5.5,0,0,1,.16-.39.57.57,0,0,1,.38-.16h2.83a.58.58,0,0,1,.4.16.51.51,0,0,1,.17.39V25.45a.53.53,0,0,1-.17.4.57.57,0,0,1-.4.15H67.64a.52.52,0,0,1-.38-.16.53.53,0,0,1-.16-.39v-.68a4.12,4.12,0,0,1-3.4,1.45A4.3,4.3,0,0,1,60.36,24.88Zm6-2.31a2.61,2.61,0,0,0,.51-1.52c0-.41,0-.68,0-.83s0-.43,0-.81A2.27,2.27,0,0,0,66.36,18,1.69,1.69,0,0,0,65,17.44a1.63,1.63,0,0,0-1.41.58,3,3,0,0,0-.49,1.61l0,.68,0,.68a3,3,0,0,0,.49,1.61,1.65,1.65,0,0,0,1.41.58A1.62,1.62,0,0,0,66.37,22.57Z"/><path class="cls-2" d="M73.47,12.87a.54.54,0,0,1-.16-.4v-2a.54.54,0,0,1,.17-.4.52.52,0,0,1,.38-.17H76.6a.58.58,0,0,1,.57.57v2a.58.58,0,0,1-.57.57H73.86A.51.51,0,0,1,73.47,12.87Zm0,13a.54.54,0,0,1-.17-.39V15.16a.51.51,0,0,1,.17-.39.55.55,0,0,1,.38-.16H76.6a.58.58,0,0,1,.4.16.51.51,0,0,1,.17.39V25.45a.53.53,0,0,1-.17.4.57.57,0,0,1-.4.15H73.86A.51.51,0,0,1,73.48,25.84Z"/><path class="cls-2" d="M84.65,25.85a.55.55,0,0,1-.15-.4V11.24a.57.57,0,0,1,.15-.4.54.54,0,0,1,.4-.17h3a.58.58,0,0,1,.57.57v5.19h5.16V11.24a.58.58,0,0,1,.57-.57h3a.57.57,0,0,1,.41.17.54.54,0,0,1,.16.4V25.45a.52.52,0,0,1-.16.4.59.59,0,0,1-.41.15h-3a.57.57,0,0,1-.4-.15.53.53,0,0,1-.17-.4V20.09H88.62v5.36a.53.53,0,0,1-.17.4.57.57,0,0,1-.4.15h-3A.57.57,0,0,1,84.65,25.85Z"/></svg>